<mxfile host="Electron" modified="2023-06-04T17:07:21.853Z" agent="Mozilla/5.0 (Windows NT 10.0; Win64; x64) AppleWebKit/537.36 (KHTML, like Gecko) draw.io/21.2.8 Chrome/112.0.5615.165 Electron/24.2.0 Safari/537.36" etag="5USDNCZbksqwjg2Mrt1z" version="21.2.8" type="device">
  <diagram name="Pagina-1" id="6Mq_mjlfumfUOl1YjtqR">
    <mxGraphModel dx="3860" dy="3070" grid="0" gridSize="5" guides="1" tooltips="1" connect="1" arrows="1" fold="1" page="1" pageScale="1" pageWidth="827" pageHeight="1169" math="0" shadow="0">
      <root>
        <mxCell id="0" />
        <mxCell id="1" parent="0" />
        <mxCell id="2qe7vK6OA9ovOPbLx4hL-5" value="&lt;font style=&quot;font-size: 18px;&quot;&gt;model&lt;/font&gt;" style="shape=folder;fontStyle=1;spacingTop=10;tabWidth=40;tabHeight=14;tabPosition=left;html=1;whiteSpace=wrap;align=center;verticalAlign=top;fillColor=#fff2cc;strokeColor=#d6b656;" parent="1" vertex="1">
          <mxGeometry x="75" y="85" width="980" height="470" as="geometry" />
        </mxCell>
        <mxCell id="2qe7vK6OA9ovOPbLx4hL-6" value="&lt;font style=&quot;font-size: 18px;&quot;&gt;controller&lt;/font&gt;" style="shape=folder;fontStyle=1;spacingTop=10;tabWidth=40;tabHeight=14;tabPosition=left;html=1;whiteSpace=wrap;verticalAlign=top;fillColor=#d5e8d4;strokeColor=#82b366;" parent="1" vertex="1">
          <mxGeometry x="1170" y="155" width="415" height="212.5" as="geometry" />
        </mxCell>
        <mxCell id="2qe7vK6OA9ovOPbLx4hL-7" value="&lt;font style=&quot;font-size: 18px;&quot;&gt;utils&lt;/font&gt;" style="shape=folder;fontStyle=1;spacingTop=10;tabWidth=40;tabHeight=14;tabPosition=left;html=1;whiteSpace=wrap;verticalAlign=top;fillColor=#f9f7ed;strokeColor=#36393d;" parent="1" vertex="1">
          <mxGeometry x="1280" y="460" width="350" height="200" as="geometry" />
        </mxCell>
        <mxCell id="2qe7vK6OA9ovOPbLx4hL-8" value="&lt;font style=&quot;font-size: 18px;&quot;&gt;network.message&lt;/font&gt;" style="shape=folder;fontStyle=1;spacingTop=10;tabWidth=40;tabHeight=14;tabPosition=left;html=1;whiteSpace=wrap;verticalAlign=top;fillColor=#eeeeee;strokeColor=#36393d;" parent="1" vertex="1">
          <mxGeometry x="1207.5" y="708.75" width="610" height="386.25" as="geometry" />
        </mxCell>
        <mxCell id="2qe7vK6OA9ovOPbLx4hL-9" value="&lt;font style=&quot;font-size: 18px;&quot;&gt;distributed&lt;/font&gt;" style="shape=folder;fontStyle=1;spacingTop=10;tabWidth=40;tabHeight=14;tabPosition=left;html=1;whiteSpace=wrap;verticalAlign=top;fillColor=#dae8fc;strokeColor=#6c8ebf;" parent="1" vertex="1">
          <mxGeometry x="55" y="665" width="960" height="335" as="geometry" />
        </mxCell>
        <mxCell id="2qe7vK6OA9ovOPbLx4hL-10" value="&lt;font style=&quot;font-size: 18px;&quot;&gt;view&lt;/font&gt;" style="shape=folder;fontStyle=1;spacingTop=10;tabWidth=40;tabHeight=14;tabPosition=left;html=1;whiteSpace=wrap;verticalAlign=top;fillColor=#e1d5e7;strokeColor=#9673a6;" parent="1" vertex="1">
          <mxGeometry x="75" y="1155" width="1623" height="660" as="geometry" />
        </mxCell>
        <mxCell id="2qe7vK6OA9ovOPbLx4hL-39" value="«abstract»&lt;br style=&quot;border-color: var(--border-color); font-weight: 400;&quot;&gt;CommonGoalCard" style="swimlane;fontStyle=1;align=center;verticalAlign=top;childLayout=stackLayout;horizontal=1;startSize=40;horizontalStack=0;resizeParent=1;resizeParentMax=0;resizeLast=0;collapsible=1;marginBottom=0;whiteSpace=wrap;html=1;" parent="1" vertex="1">
          <mxGeometry x="804" y="295" width="160" height="50" as="geometry" />
        </mxCell>
        <mxCell id="2qe7vK6OA9ovOPbLx4hL-40" value="" style="line;strokeWidth=1;fillColor=none;align=left;verticalAlign=middle;spacingTop=-1;spacingLeft=3;spacingRight=3;rotatable=0;labelPosition=right;points=[];portConstraint=eastwest;strokeColor=inherit;" parent="2qe7vK6OA9ovOPbLx4hL-39" vertex="1">
          <mxGeometry y="40" width="160" height="10" as="geometry" />
        </mxCell>
        <mxCell id="wJdnqVq0FRM58SnaqcS5-16" style="edgeStyle=orthogonalEdgeStyle;rounded=0;orthogonalLoop=1;jettySize=auto;html=1;exitX=0.093;exitY=-0.017;exitDx=0;exitDy=0;entryX=1;entryY=0.25;entryDx=0;entryDy=0;exitPerimeter=0;endArrow=openThin;endFill=0;" parent="1" source="2qe7vK6OA9ovOPbLx4hL-41" target="2qe7vK6OA9ovOPbLx4hL-43" edge="1">
          <mxGeometry relative="1" as="geometry" />
        </mxCell>
        <mxCell id="2qe7vK6OA9ovOPbLx4hL-41" value="Player" style="swimlane;fontStyle=1;align=center;verticalAlign=top;childLayout=stackLayout;horizontal=1;startSize=30;horizontalStack=0;resizeParent=1;resizeParentMax=0;resizeLast=0;collapsible=1;marginBottom=0;whiteSpace=wrap;html=1;" parent="1" vertex="1">
          <mxGeometry x="360" y="275" width="90" height="50" as="geometry" />
        </mxCell>
        <mxCell id="2qe7vK6OA9ovOPbLx4hL-42" value="" style="line;strokeWidth=1;fillColor=none;align=left;verticalAlign=middle;spacingTop=-1;spacingLeft=3;spacingRight=3;rotatable=0;labelPosition=right;points=[];portConstraint=eastwest;strokeColor=inherit;" parent="2qe7vK6OA9ovOPbLx4hL-41" vertex="1">
          <mxGeometry y="30" width="90" height="20" as="geometry" />
        </mxCell>
        <mxCell id="wJdnqVq0FRM58SnaqcS5-22" style="edgeStyle=orthogonalEdgeStyle;rounded=0;orthogonalLoop=1;jettySize=auto;html=1;exitX=0.5;exitY=1;exitDx=0;exitDy=0;endArrow=open;endFill=0;" parent="1" source="2qe7vK6OA9ovOPbLx4hL-43" target="2qe7vK6OA9ovOPbLx4hL-49" edge="1">
          <mxGeometry relative="1" as="geometry" />
        </mxCell>
        <mxCell id="2qe7vK6OA9ovOPbLx4hL-43" value="Bookshelf" style="swimlane;fontStyle=1;align=center;verticalAlign=top;childLayout=stackLayout;horizontal=1;startSize=30;horizontalStack=0;resizeParent=1;resizeParentMax=0;resizeLast=0;collapsible=1;marginBottom=0;whiteSpace=wrap;html=1;" parent="1" vertex="1">
          <mxGeometry x="130" y="170" width="130" height="46" as="geometry" />
        </mxCell>
        <mxCell id="2qe7vK6OA9ovOPbLx4hL-44" value="" style="line;strokeWidth=1;fillColor=none;align=left;verticalAlign=middle;spacingTop=-1;spacingLeft=3;spacingRight=3;rotatable=0;labelPosition=right;points=[];portConstraint=eastwest;strokeColor=inherit;" parent="2qe7vK6OA9ovOPbLx4hL-43" vertex="1">
          <mxGeometry y="30" width="130" height="16" as="geometry" />
        </mxCell>
        <mxCell id="2qe7vK6OA9ovOPbLx4hL-45" value="Board" style="swimlane;fontStyle=1;align=center;verticalAlign=top;childLayout=stackLayout;horizontal=1;startSize=30;horizontalStack=0;resizeParent=1;resizeParentMax=0;resizeLast=0;collapsible=1;marginBottom=0;whiteSpace=wrap;html=1;" parent="1" vertex="1">
          <mxGeometry x="580" y="235" width="77" height="52" as="geometry" />
        </mxCell>
        <mxCell id="2qe7vK6OA9ovOPbLx4hL-46" value="" style="line;strokeWidth=1;fillColor=none;align=left;verticalAlign=middle;spacingTop=-1;spacingLeft=3;spacingRight=3;rotatable=0;labelPosition=right;points=[];portConstraint=eastwest;strokeColor=inherit;" parent="2qe7vK6OA9ovOPbLx4hL-45" vertex="1">
          <mxGeometry y="30" width="77" height="22" as="geometry" />
        </mxCell>
        <mxCell id="wJdnqVq0FRM58SnaqcS5-51" style="edgeStyle=orthogonalEdgeStyle;rounded=0;orthogonalLoop=1;jettySize=auto;html=1;exitX=0;exitY=0.25;exitDx=0;exitDy=0;entryX=0.5;entryY=1;entryDx=0;entryDy=0;endArrow=open;endFill=0;" parent="1" source="2qe7vK6OA9ovOPbLx4hL-47" target="2qe7vK6OA9ovOPbLx4hL-72" edge="1">
          <mxGeometry relative="1" as="geometry" />
        </mxCell>
        <mxCell id="2qe7vK6OA9ovOPbLx4hL-47" value="PersonalGoalCard" style="swimlane;fontStyle=1;align=center;verticalAlign=top;childLayout=stackLayout;horizontal=1;startSize=30;horizontalStack=0;resizeParent=1;resizeParentMax=0;resizeLast=0;collapsible=1;marginBottom=0;whiteSpace=wrap;html=1;" parent="1" vertex="1">
          <mxGeometry x="270" y="460" width="160" height="50" as="geometry" />
        </mxCell>
        <mxCell id="2qe7vK6OA9ovOPbLx4hL-48" value="" style="line;strokeWidth=1;fillColor=none;align=left;verticalAlign=middle;spacingTop=-1;spacingLeft=3;spacingRight=3;rotatable=0;labelPosition=right;points=[];portConstraint=eastwest;strokeColor=inherit;" parent="2qe7vK6OA9ovOPbLx4hL-47" vertex="1">
          <mxGeometry y="30" width="160" height="20" as="geometry" />
        </mxCell>
        <mxCell id="wJdnqVq0FRM58SnaqcS5-10" style="edgeStyle=orthogonalEdgeStyle;rounded=0;orthogonalLoop=1;jettySize=auto;html=1;endArrow=open;endFill=0;" parent="1" source="2qe7vK6OA9ovOPbLx4hL-49" target="2qe7vK6OA9ovOPbLx4hL-72" edge="1">
          <mxGeometry relative="1" as="geometry" />
        </mxCell>
        <mxCell id="2qe7vK6OA9ovOPbLx4hL-49" value="ItemTile" style="swimlane;fontStyle=1;align=center;verticalAlign=top;childLayout=stackLayout;horizontal=1;startSize=30;horizontalStack=0;resizeParent=1;resizeParentMax=0;resizeLast=0;collapsible=1;marginBottom=0;whiteSpace=wrap;html=1;" parent="1" vertex="1">
          <mxGeometry x="135" y="270" width="120" height="44" as="geometry" />
        </mxCell>
        <mxCell id="2qe7vK6OA9ovOPbLx4hL-50" value="" style="line;strokeWidth=1;fillColor=none;align=left;verticalAlign=middle;spacingTop=-1;spacingLeft=3;spacingRight=3;rotatable=0;labelPosition=right;points=[];portConstraint=eastwest;strokeColor=inherit;" parent="2qe7vK6OA9ovOPbLx4hL-49" vertex="1">
          <mxGeometry y="30" width="120" height="14" as="geometry" />
        </mxCell>
        <mxCell id="wJdnqVq0FRM58SnaqcS5-24" style="edgeStyle=orthogonalEdgeStyle;rounded=0;orthogonalLoop=1;jettySize=auto;html=1;endArrow=open;endFill=0;" parent="1" source="2qe7vK6OA9ovOPbLx4hL-51" target="2qe7vK6OA9ovOPbLx4hL-41" edge="1">
          <mxGeometry relative="1" as="geometry" />
        </mxCell>
        <mxCell id="wJdnqVq0FRM58SnaqcS5-48" style="edgeStyle=orthogonalEdgeStyle;rounded=0;orthogonalLoop=1;jettySize=auto;html=1;exitX=1;exitY=0.25;exitDx=0;exitDy=0;entryX=0.25;entryY=0;entryDx=0;entryDy=0;endArrow=open;endFill=0;" parent="1" source="2qe7vK6OA9ovOPbLx4hL-51" target="2qe7vK6OA9ovOPbLx4hL-45" edge="1">
          <mxGeometry relative="1" as="geometry" />
        </mxCell>
        <mxCell id="2qe7vK6OA9ovOPbLx4hL-51" value="GameView" style="swimlane;fontStyle=1;align=center;verticalAlign=top;childLayout=stackLayout;horizontal=1;startSize=30;horizontalStack=0;resizeParent=1;resizeParentMax=0;resizeLast=0;collapsible=1;marginBottom=0;whiteSpace=wrap;html=1;" parent="1" vertex="1">
          <mxGeometry x="450" y="170" width="100" height="49" as="geometry" />
        </mxCell>
        <mxCell id="2qe7vK6OA9ovOPbLx4hL-52" value="" style="line;strokeWidth=1;fillColor=none;align=left;verticalAlign=middle;spacingTop=-1;spacingLeft=3;spacingRight=3;rotatable=0;labelPosition=right;points=[];portConstraint=eastwest;strokeColor=inherit;" parent="2qe7vK6OA9ovOPbLx4hL-51" vertex="1">
          <mxGeometry y="30" width="100" height="19" as="geometry" />
        </mxCell>
        <mxCell id="wJdnqVq0FRM58SnaqcS5-47" style="edgeStyle=orthogonalEdgeStyle;rounded=0;orthogonalLoop=1;jettySize=auto;html=1;exitX=0.5;exitY=1;exitDx=0;exitDy=0;entryX=0.848;entryY=0.023;entryDx=0;entryDy=0;entryPerimeter=0;endArrow=open;endFill=0;" parent="1" source="2qe7vK6OA9ovOPbLx4hL-55" target="2qe7vK6OA9ovOPbLx4hL-47" edge="1">
          <mxGeometry relative="1" as="geometry">
            <Array as="points">
              <mxPoint x="405" y="440" />
            </Array>
          </mxGeometry>
        </mxCell>
        <mxCell id="2qe7vK6OA9ovOPbLx4hL-55" value="Bag" style="swimlane;fontStyle=1;align=center;verticalAlign=top;childLayout=stackLayout;horizontal=1;startSize=30;horizontalStack=0;resizeParent=1;resizeParentMax=0;resizeLast=0;collapsible=1;marginBottom=0;whiteSpace=wrap;html=1;" parent="1" vertex="1">
          <mxGeometry x="360" y="350" width="90" height="50" as="geometry" />
        </mxCell>
        <mxCell id="2qe7vK6OA9ovOPbLx4hL-56" value="" style="line;strokeWidth=1;fillColor=none;align=left;verticalAlign=middle;spacingTop=-1;spacingLeft=3;spacingRight=3;rotatable=0;labelPosition=right;points=[];portConstraint=eastwest;strokeColor=inherit;" parent="2qe7vK6OA9ovOPbLx4hL-55" vertex="1">
          <mxGeometry y="30" width="90" height="20" as="geometry" />
        </mxCell>
        <mxCell id="2qe7vK6OA9ovOPbLx4hL-59" value="«interface»&lt;br&gt;&lt;b&gt;Observer&lt;/b&gt;" style="html=1;whiteSpace=wrap;" parent="1" vertex="1">
          <mxGeometry x="1337.5" y="505" width="110" height="50" as="geometry" />
        </mxCell>
        <mxCell id="EsLmEgkiOm4dnzLNr7Mo-23" value="+notifies" style="edgeStyle=orthogonalEdgeStyle;rounded=0;orthogonalLoop=1;jettySize=auto;html=1;exitX=0.5;exitY=0;exitDx=0;exitDy=0;entryX=1;entryY=0.5;entryDx=0;entryDy=0;endArrow=open;endFill=0;" parent="1" source="2qe7vK6OA9ovOPbLx4hL-60" target="2qe7vK6OA9ovOPbLx4hL-59" edge="1">
          <mxGeometry x="-0.1666" y="-27" relative="1" as="geometry">
            <mxPoint as="offset" />
          </mxGeometry>
        </mxCell>
        <mxCell id="2qe7vK6OA9ovOPbLx4hL-60" value="Observable" style="swimlane;fontStyle=1;align=center;verticalAlign=top;childLayout=stackLayout;horizontal=1;startSize=30;horizontalStack=0;resizeParent=1;resizeParentMax=0;resizeLast=0;collapsible=1;marginBottom=0;whiteSpace=wrap;html=1;" parent="1" vertex="1">
          <mxGeometry x="1432.5" y="585" width="160" height="52" as="geometry" />
        </mxCell>
        <mxCell id="2qe7vK6OA9ovOPbLx4hL-61" value="" style="line;strokeWidth=1;align=left;verticalAlign=middle;spacingTop=-1;spacingLeft=3;spacingRight=3;rotatable=0;labelPosition=right;points=[];portConstraint=eastwest;" parent="2qe7vK6OA9ovOPbLx4hL-60" vertex="1">
          <mxGeometry y="30" width="160" height="22" as="geometry" />
        </mxCell>
        <mxCell id="EsLmEgkiOm4dnzLNr7Mo-4" style="edgeStyle=orthogonalEdgeStyle;rounded=0;orthogonalLoop=1;jettySize=auto;html=1;exitX=1;exitY=0.25;exitDx=0;exitDy=0;entryX=0;entryY=0.25;entryDx=0;entryDy=0;endArrow=open;endFill=0;" parent="1" source="2qe7vK6OA9ovOPbLx4hL-62" target="2qe7vK6OA9ovOPbLx4hL-64" edge="1">
          <mxGeometry relative="1" as="geometry" />
        </mxCell>
        <mxCell id="EsLmEgkiOm4dnzLNr7Mo-5" value="+controls" style="edgeStyle=orthogonalEdgeStyle;rounded=0;orthogonalLoop=1;jettySize=auto;html=1;exitX=0.5;exitY=0;exitDx=0;exitDy=0;entryX=0.5;entryY=0;entryDx=0;entryDy=0;endArrow=open;endFill=0;" parent="1" source="2qe7vK6OA9ovOPbLx4hL-62" target="2qe7vK6OA9ovOPbLx4hL-53" edge="1">
          <mxGeometry x="0.0052" y="-10" relative="1" as="geometry">
            <Array as="points">
              <mxPoint x="1230" y="80" />
              <mxPoint x="734" y="80" />
            </Array>
            <mxPoint as="offset" />
          </mxGeometry>
        </mxCell>
        <mxCell id="2qe7vK6OA9ovOPbLx4hL-62" value="GameController" style="swimlane;fontStyle=1;align=center;verticalAlign=top;childLayout=stackLayout;horizontal=1;startSize=30;horizontalStack=0;resizeParent=1;resizeParentMax=0;resizeLast=0;collapsible=1;marginBottom=0;whiteSpace=wrap;html=1;" parent="1" vertex="1">
          <mxGeometry x="1185" y="205" width="140" height="50" as="geometry" />
        </mxCell>
        <mxCell id="2qe7vK6OA9ovOPbLx4hL-63" value="" style="line;strokeWidth=1;fillColor=none;align=left;verticalAlign=middle;spacingTop=-1;spacingLeft=3;spacingRight=3;rotatable=0;labelPosition=right;points=[];portConstraint=eastwest;strokeColor=inherit;" parent="2qe7vK6OA9ovOPbLx4hL-62" vertex="1">
          <mxGeometry y="30" width="140" height="20" as="geometry" />
        </mxCell>
        <mxCell id="2qe7vK6OA9ovOPbLx4hL-64" value="TurnController" style="swimlane;fontStyle=1;align=center;verticalAlign=top;childLayout=stackLayout;horizontal=1;startSize=30;horizontalStack=0;resizeParent=1;resizeParentMax=0;resizeLast=0;collapsible=1;marginBottom=0;whiteSpace=wrap;html=1;" parent="1" vertex="1">
          <mxGeometry x="1425" y="205" width="120" height="50" as="geometry" />
        </mxCell>
        <mxCell id="2qe7vK6OA9ovOPbLx4hL-65" value="" style="line;strokeWidth=1;fillColor=none;align=left;verticalAlign=middle;spacingTop=-1;spacingLeft=3;spacingRight=3;rotatable=0;labelPosition=right;points=[];portConstraint=eastwest;strokeColor=inherit;" parent="2qe7vK6OA9ovOPbLx4hL-64" vertex="1">
          <mxGeometry y="30" width="120" height="20" as="geometry" />
        </mxCell>
        <mxCell id="EsLmEgkiOm4dnzLNr7Mo-65" style="edgeStyle=orthogonalEdgeStyle;shape=connector;rounded=0;orthogonalLoop=1;jettySize=auto;html=1;exitX=0;exitY=0.25;exitDx=0;exitDy=0;entryX=0.5;entryY=0;entryDx=0;entryDy=0;labelBackgroundColor=default;strokeColor=default;fontFamily=Helvetica;fontSize=11;fontColor=default;endArrow=open;endFill=0;startArrow=open;startFill=0;" parent="1" source="2qe7vK6OA9ovOPbLx4hL-66" target="2qe7vK6OA9ovOPbLx4hL-85" edge="1">
          <mxGeometry relative="1" as="geometry">
            <Array as="points">
              <mxPoint x="1210" y="308" />
              <mxPoint x="1210" y="580" />
              <mxPoint x="650" y="580" />
            </Array>
          </mxGeometry>
        </mxCell>
        <mxCell id="2qe7vK6OA9ovOPbLx4hL-66" value="PreGameController" style="swimlane;fontStyle=1;align=center;verticalAlign=top;childLayout=stackLayout;horizontal=1;startSize=30;horizontalStack=0;resizeParent=1;resizeParentMax=0;resizeLast=0;collapsible=1;marginBottom=0;whiteSpace=wrap;html=1;" parent="1" vertex="1">
          <mxGeometry x="1330" y="295" width="160" height="50" as="geometry" />
        </mxCell>
        <mxCell id="2qe7vK6OA9ovOPbLx4hL-67" value="" style="line;strokeWidth=1;fillColor=none;align=left;verticalAlign=middle;spacingTop=-1;spacingLeft=3;spacingRight=3;rotatable=0;labelPosition=right;points=[];portConstraint=eastwest;strokeColor=inherit;" parent="2qe7vK6OA9ovOPbLx4hL-66" vertex="1">
          <mxGeometry y="30" width="160" height="20" as="geometry" />
        </mxCell>
        <mxCell id="2qe7vK6OA9ovOPbLx4hL-72" value="«enumeration»&lt;br&gt;ItemType" style="swimlane;fontStyle=0;childLayout=stackLayout;horizontal=1;startSize=30;fillColor=none;horizontalStack=0;resizeParent=1;resizeParentMax=0;resizeLast=0;collapsible=1;marginBottom=0;whiteSpace=wrap;html=1;" parent="1" vertex="1">
          <mxGeometry x="125" y="370" width="140" height="40" as="geometry" />
        </mxCell>
        <mxCell id="2qe7vK6OA9ovOPbLx4hL-73" value="&lt;br&gt;" style="text;strokeColor=none;fillColor=none;align=left;verticalAlign=top;spacingLeft=4;spacingRight=4;overflow=hidden;rotatable=0;points=[[0,0.5],[1,0.5]];portConstraint=eastwest;whiteSpace=wrap;html=1;" parent="2qe7vK6OA9ovOPbLx4hL-72" vertex="1">
          <mxGeometry y="30" width="140" height="10" as="geometry" />
        </mxCell>
        <mxCell id="2qe7vK6OA9ovOPbLx4hL-81" value="«interface»&lt;br&gt;&lt;b&gt;Client&lt;/b&gt;" style="html=1;whiteSpace=wrap;" parent="1" vertex="1">
          <mxGeometry x="395" y="882.5" width="110" height="50" as="geometry" />
        </mxCell>
        <mxCell id="2qe7vK6OA9ovOPbLx4hL-82" value="«interface»&lt;br&gt;&lt;b&gt;Server&lt;/b&gt;" style="html=1;whiteSpace=wrap;" parent="1" vertex="1">
          <mxGeometry x="385" y="762.5" width="110" height="50" as="geometry" />
        </mxCell>
        <mxCell id="EsLmEgkiOm4dnzLNr7Mo-71" style="edgeStyle=orthogonalEdgeStyle;shape=connector;rounded=0;orthogonalLoop=1;jettySize=auto;html=1;entryX=0.5;entryY=0;entryDx=0;entryDy=0;labelBackgroundColor=default;strokeColor=default;fontFamily=Helvetica;fontSize=11;fontColor=default;endArrow=open;endFill=0;" parent="1" source="2qe7vK6OA9ovOPbLx4hL-83" target="2qe7vK6OA9ovOPbLx4hL-92" edge="1">
          <mxGeometry relative="1" as="geometry" />
        </mxCell>
        <mxCell id="2qe7vK6OA9ovOPbLx4hL-83" value="ClientInfo" style="swimlane;fontStyle=1;align=center;verticalAlign=top;childLayout=stackLayout;horizontal=1;startSize=30;horizontalStack=0;resizeParent=1;resizeParentMax=0;resizeLast=0;collapsible=1;marginBottom=0;whiteSpace=wrap;html=1;" parent="1" vertex="1">
          <mxGeometry x="790" y="850" width="160" height="54" as="geometry" />
        </mxCell>
        <mxCell id="2qe7vK6OA9ovOPbLx4hL-84" value="" style="line;strokeWidth=1;fillColor=none;align=left;verticalAlign=middle;spacingTop=-1;spacingLeft=3;spacingRight=3;rotatable=0;labelPosition=right;points=[];portConstraint=eastwest;strokeColor=inherit;" parent="2qe7vK6OA9ovOPbLx4hL-83" vertex="1">
          <mxGeometry y="30" width="160" height="24" as="geometry" />
        </mxCell>
        <mxCell id="EsLmEgkiOm4dnzLNr7Mo-75" style="edgeStyle=orthogonalEdgeStyle;shape=connector;rounded=0;orthogonalLoop=1;jettySize=auto;html=1;exitX=0.5;exitY=1;exitDx=0;exitDy=0;entryX=0.5;entryY=0;entryDx=0;entryDy=0;labelBackgroundColor=default;strokeColor=default;fontFamily=Helvetica;fontSize=11;fontColor=default;endArrow=open;endFill=0;" parent="1" source="2qe7vK6OA9ovOPbLx4hL-85" target="2qe7vK6OA9ovOPbLx4hL-87" edge="1">
          <mxGeometry relative="1" as="geometry" />
        </mxCell>
        <mxCell id="EsLmEgkiOm4dnzLNr7Mo-76" style="edgeStyle=orthogonalEdgeStyle;shape=connector;rounded=0;orthogonalLoop=1;jettySize=auto;html=1;exitX=1;exitY=0.25;exitDx=0;exitDy=0;labelBackgroundColor=default;strokeColor=default;fontFamily=Helvetica;fontSize=11;fontColor=default;endArrow=none;endFill=0;dashed=1;dashPattern=12 12;" parent="1" source="2qe7vK6OA9ovOPbLx4hL-85" edge="1">
          <mxGeometry relative="1" as="geometry">
            <mxPoint x="1205" y="762" as="targetPoint" />
          </mxGeometry>
        </mxCell>
        <mxCell id="EsLmEgkiOm4dnzLNr7Mo-80" style="edgeStyle=orthogonalEdgeStyle;shape=connector;rounded=0;orthogonalLoop=1;jettySize=auto;html=1;exitX=1;exitY=0.5;exitDx=0;exitDy=0;entryX=0.5;entryY=0;entryDx=0;entryDy=0;labelBackgroundColor=default;strokeColor=default;fontFamily=Helvetica;fontSize=11;fontColor=default;endArrow=open;endFill=0;" parent="1" source="2qe7vK6OA9ovOPbLx4hL-85" target="2qe7vK6OA9ovOPbLx4hL-83" edge="1">
          <mxGeometry relative="1" as="geometry" />
        </mxCell>
        <mxCell id="2qe7vK6OA9ovOPbLx4hL-85" value="ServerImpl" style="swimlane;fontStyle=1;align=center;verticalAlign=top;childLayout=stackLayout;horizontal=1;startSize=30;horizontalStack=0;resizeParent=1;resizeParentMax=0;resizeLast=0;collapsible=1;marginBottom=0;whiteSpace=wrap;html=1;" parent="1" vertex="1">
          <mxGeometry x="570" y="750" width="160" height="50" as="geometry" />
        </mxCell>
        <mxCell id="2qe7vK6OA9ovOPbLx4hL-86" value="" style="line;strokeWidth=1;fillColor=none;align=left;verticalAlign=middle;spacingTop=-1;spacingLeft=3;spacingRight=3;rotatable=0;labelPosition=right;points=[];portConstraint=eastwest;strokeColor=inherit;" parent="2qe7vK6OA9ovOPbLx4hL-85" vertex="1">
          <mxGeometry y="30" width="160" height="20" as="geometry" />
        </mxCell>
        <mxCell id="EsLmEgkiOm4dnzLNr7Mo-72" style="edgeStyle=orthogonalEdgeStyle;shape=connector;rounded=0;orthogonalLoop=1;jettySize=auto;html=1;exitX=1;exitY=0.25;exitDx=0;exitDy=0;entryX=0.75;entryY=0;entryDx=0;entryDy=0;labelBackgroundColor=default;strokeColor=default;fontFamily=Helvetica;fontSize=11;fontColor=default;endArrow=open;endFill=0;" parent="1" source="2qe7vK6OA9ovOPbLx4hL-87" target="2qe7vK6OA9ovOPbLx4hL-53" edge="1">
          <mxGeometry relative="1" as="geometry">
            <Array as="points">
              <mxPoint x="1125" y="835" />
              <mxPoint x="1125" y="125" />
              <mxPoint x="762" y="125" />
            </Array>
          </mxGeometry>
        </mxCell>
        <mxCell id="2qe7vK6OA9ovOPbLx4hL-87" value="Lobby" style="swimlane;fontStyle=1;align=center;verticalAlign=top;childLayout=stackLayout;horizontal=1;startSize=30;horizontalStack=0;resizeParent=1;resizeParentMax=0;resizeLast=0;collapsible=1;marginBottom=0;whiteSpace=wrap;html=1;" parent="1" vertex="1">
          <mxGeometry x="570" y="825" width="160" height="40" as="geometry" />
        </mxCell>
        <mxCell id="2qe7vK6OA9ovOPbLx4hL-88" value="" style="line;strokeWidth=1;fillColor=none;align=left;verticalAlign=middle;spacingTop=-1;spacingLeft=3;spacingRight=3;rotatable=0;labelPosition=right;points=[];portConstraint=eastwest;strokeColor=inherit;" parent="2qe7vK6OA9ovOPbLx4hL-87" vertex="1">
          <mxGeometry y="30" width="160" height="10" as="geometry" />
        </mxCell>
        <mxCell id="EsLmEgkiOm4dnzLNr7Mo-67" style="edgeStyle=orthogonalEdgeStyle;shape=connector;rounded=0;orthogonalLoop=1;jettySize=auto;html=1;exitX=0.75;exitY=1;exitDx=0;exitDy=0;entryX=0;entryY=0.25;entryDx=0;entryDy=0;labelBackgroundColor=default;strokeColor=default;fontFamily=Helvetica;fontSize=11;fontColor=default;endArrow=open;endFill=0;" parent="1" source="2qe7vK6OA9ovOPbLx4hL-89" target="2qe7vK6OA9ovOPbLx4hL-118" edge="1">
          <mxGeometry relative="1" as="geometry">
            <Array as="points">
              <mxPoint x="690" y="1214" />
            </Array>
          </mxGeometry>
        </mxCell>
        <mxCell id="2qe7vK6OA9ovOPbLx4hL-89" value="ClientImpl" style="swimlane;fontStyle=1;align=center;verticalAlign=top;childLayout=stackLayout;horizontal=1;startSize=30;horizontalStack=0;resizeParent=1;resizeParentMax=0;resizeLast=0;collapsible=1;marginBottom=0;whiteSpace=wrap;html=1;" parent="1" vertex="1">
          <mxGeometry x="570" y="895" width="160" height="40" as="geometry" />
        </mxCell>
        <mxCell id="2qe7vK6OA9ovOPbLx4hL-90" value="" style="line;strokeWidth=1;fillColor=none;align=left;verticalAlign=middle;spacingTop=-1;spacingLeft=3;spacingRight=3;rotatable=0;labelPosition=right;points=[];portConstraint=eastwest;strokeColor=inherit;" parent="2qe7vK6OA9ovOPbLx4hL-89" vertex="1">
          <mxGeometry y="30" width="160" height="10" as="geometry" />
        </mxCell>
        <mxCell id="2qe7vK6OA9ovOPbLx4hL-92" value="«enumeration»&lt;br&gt;ClientState" style="swimlane;fontStyle=0;childLayout=stackLayout;horizontal=1;startSize=30;fillColor=none;horizontalStack=0;resizeParent=1;resizeParentMax=0;resizeLast=0;collapsible=1;marginBottom=0;whiteSpace=wrap;html=1;" parent="1" vertex="1">
          <mxGeometry x="800" y="940" width="140" height="40" as="geometry" />
        </mxCell>
        <mxCell id="2qe7vK6OA9ovOPbLx4hL-93" value="&lt;br&gt;" style="text;strokeColor=none;fillColor=none;align=left;verticalAlign=top;spacingLeft=4;spacingRight=4;overflow=hidden;rotatable=0;points=[[0,0.5],[1,0.5]];portConstraint=eastwest;whiteSpace=wrap;html=1;" parent="2qe7vK6OA9ovOPbLx4hL-92" vertex="1">
          <mxGeometry y="30" width="140" height="10" as="geometry" />
        </mxCell>
        <mxCell id="2qe7vK6OA9ovOPbLx4hL-95" value="socket.middleware" style="shape=folder;fontStyle=1;spacingTop=10;tabWidth=40;tabHeight=14;tabPosition=left;html=1;whiteSpace=wrap;verticalAlign=top;fillColor=#bac8d3;strokeColor=#23445d;" parent="1" vertex="1">
          <mxGeometry x="72.5" y="700" width="265" height="275" as="geometry" />
        </mxCell>
        <mxCell id="2qe7vK6OA9ovOPbLx4hL-96" value="ClientSkeleton" style="swimlane;fontStyle=1;align=center;verticalAlign=top;childLayout=stackLayout;horizontal=1;startSize=30;horizontalStack=0;resizeParent=1;resizeParentMax=0;resizeLast=0;collapsible=1;marginBottom=0;whiteSpace=wrap;html=1;" parent="1" vertex="1">
          <mxGeometry x="125" y="892.5" width="160" height="60" as="geometry" />
        </mxCell>
        <mxCell id="2qe7vK6OA9ovOPbLx4hL-97" value="" style="line;strokeWidth=1;fillColor=none;align=left;verticalAlign=middle;spacingTop=-1;spacingLeft=3;spacingRight=3;rotatable=0;labelPosition=right;points=[];portConstraint=eastwest;strokeColor=inherit;" parent="2qe7vK6OA9ovOPbLx4hL-96" vertex="1">
          <mxGeometry y="30" width="160" height="30" as="geometry" />
        </mxCell>
        <mxCell id="2qe7vK6OA9ovOPbLx4hL-98" value="ServerStub" style="swimlane;fontStyle=1;align=center;verticalAlign=top;childLayout=stackLayout;horizontal=1;startSize=30;horizontalStack=0;resizeParent=1;resizeParentMax=0;resizeLast=0;collapsible=1;marginBottom=0;whiteSpace=wrap;html=1;" parent="1" vertex="1">
          <mxGeometry x="125" y="757.5" width="160" height="60" as="geometry" />
        </mxCell>
        <mxCell id="2qe7vK6OA9ovOPbLx4hL-99" value="" style="line;strokeWidth=1;fillColor=none;align=left;verticalAlign=middle;spacingTop=-1;spacingLeft=3;spacingRight=3;rotatable=0;labelPosition=right;points=[];portConstraint=eastwest;strokeColor=inherit;" parent="2qe7vK6OA9ovOPbLx4hL-98" vertex="1">
          <mxGeometry y="30" width="160" height="30" as="geometry" />
        </mxCell>
        <mxCell id="2qe7vK6OA9ovOPbLx4hL-100" value="&lt;span style=&quot;font-weight: normal;&quot;&gt;«abstract»&lt;br&gt;&lt;/span&gt;Message" style="swimlane;fontStyle=1;align=center;verticalAlign=top;childLayout=stackLayout;horizontal=1;startSize=40;horizontalStack=0;resizeParent=1;resizeParentMax=0;resizeLast=0;collapsible=1;marginBottom=0;whiteSpace=wrap;html=1;" parent="1" vertex="1">
          <mxGeometry x="1420" y="755" width="160" height="55" as="geometry" />
        </mxCell>
        <mxCell id="2qe7vK6OA9ovOPbLx4hL-101" value="" style="line;strokeWidth=1;fillColor=none;align=left;verticalAlign=middle;spacingTop=-1;spacingLeft=3;spacingRight=3;rotatable=0;labelPosition=right;points=[];portConstraint=eastwest;strokeColor=inherit;" parent="2qe7vK6OA9ovOPbLx4hL-100" vertex="1">
          <mxGeometry y="40" width="160" height="15" as="geometry" />
        </mxCell>
        <mxCell id="2qe7vK6OA9ovOPbLx4hL-102" value="«interface»&lt;br&gt;&lt;b&gt;MessageToClient&lt;/b&gt;" style="html=1;whiteSpace=wrap;" parent="1" vertex="1">
          <mxGeometry x="1365" y="1025" width="110" height="50" as="geometry" />
        </mxCell>
        <mxCell id="2qe7vK6OA9ovOPbLx4hL-103" value="«interface»&lt;br&gt;&lt;b style=&quot;border-color: var(--border-color);&quot;&gt;MessageToServer&lt;/b&gt;" style="html=1;whiteSpace=wrap;" parent="1" vertex="1">
          <mxGeometry x="1550" y="1025" width="110" height="50" as="geometry" />
        </mxCell>
        <mxCell id="2qe7vK6OA9ovOPbLx4hL-104" value="&lt;span style=&quot;font-weight: normal;&quot;&gt;«abstract»&lt;/span&gt;&lt;br&gt;GameMessage" style="swimlane;fontStyle=1;align=center;verticalAlign=top;childLayout=stackLayout;horizontal=1;startSize=40;horizontalStack=0;resizeParent=1;resizeParentMax=0;resizeLast=0;collapsible=1;marginBottom=0;whiteSpace=wrap;html=1;" parent="1" vertex="1">
          <mxGeometry x="1287.5" y="910" width="137.5" height="55" as="geometry" />
        </mxCell>
        <mxCell id="2qe7vK6OA9ovOPbLx4hL-105" value="" style="line;strokeWidth=1;fillColor=none;align=left;verticalAlign=middle;spacingTop=-1;spacingLeft=3;spacingRight=3;rotatable=0;labelPosition=right;points=[];portConstraint=eastwest;strokeColor=inherit;" parent="2qe7vK6OA9ovOPbLx4hL-104" vertex="1">
          <mxGeometry y="40" width="137.5" height="15" as="geometry" />
        </mxCell>
        <mxCell id="2qe7vK6OA9ovOPbLx4hL-106" value="&lt;span style=&quot;font-weight: normal;&quot;&gt;«abstract»&lt;/span&gt;&lt;br&gt;ConnectionMessage" style="swimlane;fontStyle=1;align=center;verticalAlign=top;childLayout=stackLayout;horizontal=1;startSize=40;horizontalStack=0;resizeParent=1;resizeParentMax=0;resizeLast=0;collapsible=1;marginBottom=0;whiteSpace=wrap;html=1;" parent="1" vertex="1">
          <mxGeometry x="1435" y="895" width="140" height="55" as="geometry" />
        </mxCell>
        <mxCell id="2qe7vK6OA9ovOPbLx4hL-107" value="" style="line;strokeWidth=1;fillColor=none;align=left;verticalAlign=middle;spacingTop=-1;spacingLeft=3;spacingRight=3;rotatable=0;labelPosition=right;points=[];portConstraint=eastwest;strokeColor=inherit;" parent="2qe7vK6OA9ovOPbLx4hL-106" vertex="1">
          <mxGeometry y="40" width="140" height="15" as="geometry" />
        </mxCell>
        <mxCell id="2qe7vK6OA9ovOPbLx4hL-108" value="&lt;span style=&quot;font-weight: normal;&quot;&gt;«abstract»&lt;/span&gt;&lt;br&gt;LobbyMessage" style="swimlane;fontStyle=1;align=center;verticalAlign=top;childLayout=stackLayout;horizontal=1;startSize=40;horizontalStack=0;resizeParent=1;resizeParentMax=0;resizeLast=0;collapsible=1;marginBottom=0;whiteSpace=wrap;html=1;" parent="1" vertex="1">
          <mxGeometry x="1585" y="910" width="130" height="55" as="geometry" />
        </mxCell>
        <mxCell id="2qe7vK6OA9ovOPbLx4hL-109" value="" style="line;strokeWidth=1;fillColor=none;align=left;verticalAlign=middle;spacingTop=-1;spacingLeft=3;spacingRight=3;rotatable=0;labelPosition=right;points=[];portConstraint=eastwest;strokeColor=inherit;" parent="2qe7vK6OA9ovOPbLx4hL-108" vertex="1">
          <mxGeometry y="40" width="130" height="15" as="geometry" />
        </mxCell>
        <mxCell id="2qe7vK6OA9ovOPbLx4hL-110" value="ChatMessage" style="swimlane;fontStyle=1;align=center;verticalAlign=top;childLayout=stackLayout;horizontal=1;startSize=30;horizontalStack=0;resizeParent=1;resizeParentMax=0;resizeLast=0;collapsible=1;marginBottom=0;whiteSpace=wrap;html=1;" parent="1" vertex="1">
          <mxGeometry x="1235" y="850" width="160" height="45" as="geometry" />
        </mxCell>
        <mxCell id="2qe7vK6OA9ovOPbLx4hL-111" value="" style="line;strokeWidth=1;fillColor=none;align=left;verticalAlign=middle;spacingTop=-1;spacingLeft=3;spacingRight=3;rotatable=0;labelPosition=right;points=[];portConstraint=eastwest;strokeColor=inherit;" parent="2qe7vK6OA9ovOPbLx4hL-110" vertex="1">
          <mxGeometry y="30" width="160" height="15" as="geometry" />
        </mxCell>
        <mxCell id="2qe7vK6OA9ovOPbLx4hL-113" value="HeartBeatMessage" style="swimlane;fontStyle=1;align=center;verticalAlign=top;childLayout=stackLayout;horizontal=1;startSize=30;horizontalStack=0;resizeParent=1;resizeParentMax=0;resizeLast=0;collapsible=1;marginBottom=0;whiteSpace=wrap;html=1;" parent="1" vertex="1">
          <mxGeometry x="1615" y="850" width="160" height="45" as="geometry" />
        </mxCell>
        <mxCell id="2qe7vK6OA9ovOPbLx4hL-114" value="" style="line;strokeWidth=1;fillColor=none;align=left;verticalAlign=middle;spacingTop=-1;spacingLeft=3;spacingRight=3;rotatable=0;labelPosition=right;points=[];portConstraint=eastwest;strokeColor=inherit;" parent="2qe7vK6OA9ovOPbLx4hL-113" vertex="1">
          <mxGeometry y="30" width="160" height="15" as="geometry" />
        </mxCell>
        <mxCell id="2qe7vK6OA9ovOPbLx4hL-117" value="«interface»&lt;br&gt;&lt;b&gt;View&lt;/b&gt;" style="html=1;whiteSpace=wrap;" parent="1" vertex="1">
          <mxGeometry x="525" y="1204" width="110" height="50" as="geometry" />
        </mxCell>
        <mxCell id="2qe7vK6OA9ovOPbLx4hL-118" value="&lt;span style=&quot;font-weight: normal;&quot;&gt;«abstract»&lt;br&gt;&lt;/span&gt;VirtualView" style="swimlane;fontStyle=1;align=center;verticalAlign=top;childLayout=stackLayout;horizontal=1;startSize=40;horizontalStack=0;resizeParent=1;resizeParentMax=0;resizeLast=0;collapsible=1;marginBottom=0;whiteSpace=wrap;html=1;" parent="1" vertex="1">
          <mxGeometry x="730" y="1199" width="160" height="60" as="geometry" />
        </mxCell>
        <mxCell id="2qe7vK6OA9ovOPbLx4hL-119" value="" style="line;strokeWidth=1;fillColor=none;align=left;verticalAlign=middle;spacingTop=-1;spacingLeft=3;spacingRight=3;rotatable=0;labelPosition=right;points=[];portConstraint=eastwest;strokeColor=inherit;" parent="2qe7vK6OA9ovOPbLx4hL-118" vertex="1">
          <mxGeometry y="40" width="160" height="20" as="geometry" />
        </mxCell>
        <mxCell id="2qe7vK6OA9ovOPbLx4hL-120" value="&lt;font style=&quot;font-size: 18px;&quot;&gt;tui&lt;/font&gt;" style="shape=folder;fontStyle=1;spacingTop=10;tabWidth=40;tabHeight=14;tabPosition=left;html=1;whiteSpace=wrap;verticalAlign=top;fillColor=#d0cee2;strokeColor=#56517e;" parent="1" vertex="1">
          <mxGeometry x="130" y="1338" width="551" height="345" as="geometry" />
        </mxCell>
        <mxCell id="2qe7vK6OA9ovOPbLx4hL-121" value="&lt;font style=&quot;font-size: 18px;&quot;&gt;gui&lt;/font&gt;" style="shape=folder;fontStyle=1;spacingTop=10;tabWidth=40;tabHeight=14;tabPosition=left;html=1;whiteSpace=wrap;verticalAlign=top;fillColor=#d0cee2;strokeColor=#56517e;" parent="1" vertex="1">
          <mxGeometry x="865" y="1321" width="780" height="470" as="geometry" />
        </mxCell>
        <mxCell id="2qe7vK6OA9ovOPbLx4hL-122" value="«enumeration»&lt;br&gt;ActionType" style="swimlane;fontStyle=0;childLayout=stackLayout;horizontal=1;startSize=30;fillColor=none;horizontalStack=0;resizeParent=1;resizeParentMax=0;resizeLast=0;collapsible=1;marginBottom=0;whiteSpace=wrap;html=1;" parent="1" vertex="1">
          <mxGeometry x="179" y="1403.5" width="140" height="40" as="geometry" />
        </mxCell>
        <mxCell id="2qe7vK6OA9ovOPbLx4hL-124" value="«enumeration»&lt;br&gt;PlayerState" style="swimlane;fontStyle=0;childLayout=stackLayout;horizontal=1;startSize=30;fillColor=none;horizontalStack=0;resizeParent=1;resizeParentMax=0;resizeLast=0;collapsible=1;marginBottom=0;whiteSpace=wrap;html=1;" parent="1" vertex="1">
          <mxGeometry x="179" y="1600" width="140" height="40" as="geometry" />
        </mxCell>
        <mxCell id="2qe7vK6OA9ovOPbLx4hL-125" value="&lt;br&gt;" style="text;strokeColor=none;fillColor=none;align=left;verticalAlign=top;spacingLeft=4;spacingRight=4;overflow=hidden;rotatable=0;points=[[0,0.5],[1,0.5]];portConstraint=eastwest;whiteSpace=wrap;html=1;" parent="2qe7vK6OA9ovOPbLx4hL-124" vertex="1">
          <mxGeometry y="30" width="140" height="10" as="geometry" />
        </mxCell>
        <mxCell id="2qe7vK6OA9ovOPbLx4hL-126" value="«enumeration»&lt;br&gt;LobbyCommand" style="swimlane;fontStyle=0;childLayout=stackLayout;horizontal=1;startSize=30;fillColor=none;horizontalStack=0;resizeParent=1;resizeParentMax=0;resizeLast=0;collapsible=1;marginBottom=0;whiteSpace=wrap;html=1;" parent="1" vertex="1">
          <mxGeometry x="179" y="1540" width="140" height="40" as="geometry" />
        </mxCell>
        <mxCell id="2qe7vK6OA9ovOPbLx4hL-127" value="&lt;br&gt;" style="text;strokeColor=none;fillColor=none;align=left;verticalAlign=top;spacingLeft=4;spacingRight=4;overflow=hidden;rotatable=0;points=[[0,0.5],[1,0.5]];portConstraint=eastwest;whiteSpace=wrap;html=1;" parent="2qe7vK6OA9ovOPbLx4hL-126" vertex="1">
          <mxGeometry y="30" width="140" height="10" as="geometry" />
        </mxCell>
        <mxCell id="2qe7vK6OA9ovOPbLx4hL-128" value="«enumeration»&lt;br&gt;ConnectionCommand" style="swimlane;fontStyle=0;childLayout=stackLayout;horizontal=1;startSize=30;fillColor=none;horizontalStack=0;resizeParent=1;resizeParentMax=0;resizeLast=0;collapsible=1;marginBottom=0;whiteSpace=wrap;html=1;" parent="1" vertex="1">
          <mxGeometry x="179" y="1467" width="140" height="40" as="geometry" />
        </mxCell>
        <mxCell id="EsLmEgkiOm4dnzLNr7Mo-86" style="edgeStyle=orthogonalEdgeStyle;shape=connector;rounded=0;orthogonalLoop=1;jettySize=auto;html=1;exitX=0.25;exitY=0;exitDx=0;exitDy=0;entryX=1;entryY=0.25;entryDx=0;entryDy=0;labelBackgroundColor=default;strokeColor=default;fontFamily=Helvetica;fontSize=11;fontColor=default;endArrow=open;endFill=0;" parent="1" source="2qe7vK6OA9ovOPbLx4hL-130" target="2qe7vK6OA9ovOPbLx4hL-137" edge="1">
          <mxGeometry relative="1" as="geometry" />
        </mxCell>
        <mxCell id="2qe7vK6OA9ovOPbLx4hL-130" value="TextualUI" style="swimlane;fontStyle=1;align=center;verticalAlign=top;childLayout=stackLayout;horizontal=1;startSize=30;horizontalStack=0;resizeParent=1;resizeParentMax=0;resizeLast=0;collapsible=1;marginBottom=0;whiteSpace=wrap;html=1;" parent="1" vertex="1">
          <mxGeometry x="420" y="1427" width="160" height="50" as="geometry" />
        </mxCell>
        <mxCell id="2qe7vK6OA9ovOPbLx4hL-131" value="" style="line;strokeWidth=1;fillColor=none;align=left;verticalAlign=middle;spacingTop=-1;spacingLeft=3;spacingRight=3;rotatable=0;labelPosition=right;points=[];portConstraint=eastwest;strokeColor=inherit;" parent="2qe7vK6OA9ovOPbLx4hL-130" vertex="1">
          <mxGeometry y="30" width="160" height="20" as="geometry" />
        </mxCell>
        <mxCell id="2qe7vK6OA9ovOPbLx4hL-132" value="LobbyDisplayInfo" style="swimlane;fontStyle=1;align=center;verticalAlign=top;childLayout=stackLayout;horizontal=1;startSize=30;horizontalStack=0;resizeParent=1;resizeParentMax=0;resizeLast=0;collapsible=1;marginBottom=0;whiteSpace=wrap;html=1;" parent="1" vertex="1">
          <mxGeometry x="465" y="1517" width="160" height="47" as="geometry" />
        </mxCell>
        <mxCell id="2qe7vK6OA9ovOPbLx4hL-133" value="" style="line;strokeWidth=1;fillColor=none;align=left;verticalAlign=middle;spacingTop=-1;spacingLeft=3;spacingRight=3;rotatable=0;labelPosition=right;points=[];portConstraint=eastwest;strokeColor=inherit;" parent="2qe7vK6OA9ovOPbLx4hL-132" vertex="1">
          <mxGeometry y="30" width="160" height="17" as="geometry" />
        </mxCell>
        <mxCell id="2qe7vK6OA9ovOPbLx4hL-134" value="Printer" style="swimlane;fontStyle=1;align=center;verticalAlign=top;childLayout=stackLayout;horizontal=1;startSize=30;horizontalStack=0;resizeParent=1;resizeParentMax=0;resizeLast=0;collapsible=1;marginBottom=0;whiteSpace=wrap;html=1;" parent="1" vertex="1">
          <mxGeometry x="465" y="1597" width="160" height="52" as="geometry" />
        </mxCell>
        <mxCell id="2qe7vK6OA9ovOPbLx4hL-135" value="" style="line;strokeWidth=1;fillColor=none;align=left;verticalAlign=middle;spacingTop=-1;spacingLeft=3;spacingRight=3;rotatable=0;labelPosition=right;points=[];portConstraint=eastwest;strokeColor=inherit;" parent="2qe7vK6OA9ovOPbLx4hL-134" vertex="1">
          <mxGeometry y="30" width="160" height="22" as="geometry" />
        </mxCell>
        <mxCell id="2qe7vK6OA9ovOPbLx4hL-137" value="InputValidor" style="swimlane;fontStyle=1;align=center;verticalAlign=top;childLayout=stackLayout;horizontal=1;startSize=30;horizontalStack=0;resizeParent=1;resizeParentMax=0;resizeLast=0;collapsible=1;marginBottom=0;whiteSpace=wrap;html=1;fillColor=#FFFFFF;" parent="1" vertex="1">
          <mxGeometry x="230" y="1204" width="160" height="50" as="geometry" />
        </mxCell>
        <mxCell id="2qe7vK6OA9ovOPbLx4hL-138" value="" style="line;strokeWidth=1;align=left;verticalAlign=middle;spacingTop=-1;spacingLeft=3;spacingRight=3;rotatable=0;labelPosition=right;points=[];portConstraint=eastwest;" parent="2qe7vK6OA9ovOPbLx4hL-137" vertex="1">
          <mxGeometry y="30" width="160" height="20" as="geometry" />
        </mxCell>
        <mxCell id="EsLmEgkiOm4dnzLNr7Mo-101" style="edgeStyle=orthogonalEdgeStyle;shape=connector;rounded=0;orthogonalLoop=1;jettySize=auto;html=1;exitX=0.5;exitY=1;exitDx=0;exitDy=0;entryX=1;entryY=0.25;entryDx=0;entryDy=0;labelBackgroundColor=default;strokeColor=default;fontFamily=Helvetica;fontSize=11;fontColor=default;endArrow=open;endFill=0;" parent="1" source="2qe7vK6OA9ovOPbLx4hL-139" target="2qe7vK6OA9ovOPbLx4hL-143" edge="1">
          <mxGeometry relative="1" as="geometry" />
        </mxCell>
        <mxCell id="2qe7vK6OA9ovOPbLx4hL-139" value="GUI" style="swimlane;fontStyle=1;align=center;verticalAlign=top;childLayout=stackLayout;horizontal=1;startSize=30;horizontalStack=0;resizeParent=1;resizeParentMax=0;resizeLast=0;collapsible=1;marginBottom=0;whiteSpace=wrap;html=1;" parent="1" vertex="1">
          <mxGeometry x="1380" y="1421" width="160" height="58" as="geometry" />
        </mxCell>
        <mxCell id="2qe7vK6OA9ovOPbLx4hL-140" value="" style="line;strokeWidth=1;fillColor=none;align=left;verticalAlign=middle;spacingTop=-1;spacingLeft=3;spacingRight=3;rotatable=0;labelPosition=right;points=[];portConstraint=eastwest;strokeColor=inherit;" parent="2qe7vK6OA9ovOPbLx4hL-139" vertex="1">
          <mxGeometry y="30" width="160" height="28" as="geometry" />
        </mxCell>
        <mxCell id="EsLmEgkiOm4dnzLNr7Mo-102" style="edgeStyle=orthogonalEdgeStyle;shape=connector;rounded=0;orthogonalLoop=1;jettySize=auto;html=1;exitX=1;exitY=0.25;exitDx=0;exitDy=0;entryX=0;entryY=0.25;entryDx=0;entryDy=0;labelBackgroundColor=default;strokeColor=default;fontFamily=Helvetica;fontSize=11;fontColor=default;endArrow=open;endFill=0;" parent="1" source="2qe7vK6OA9ovOPbLx4hL-141" target="2qe7vK6OA9ovOPbLx4hL-139" edge="1">
          <mxGeometry relative="1" as="geometry" />
        </mxCell>
        <mxCell id="2qe7vK6OA9ovOPbLx4hL-141" value="MessageHandle" style="swimlane;fontStyle=1;align=center;verticalAlign=top;childLayout=stackLayout;horizontal=1;startSize=30;horizontalStack=0;resizeParent=1;resizeParentMax=0;resizeLast=0;collapsible=1;marginBottom=0;whiteSpace=wrap;html=1;" parent="1" vertex="1">
          <mxGeometry x="1010" y="1421" width="160" height="60" as="geometry" />
        </mxCell>
        <mxCell id="2qe7vK6OA9ovOPbLx4hL-142" value="" style="line;strokeWidth=1;fillColor=none;align=left;verticalAlign=middle;spacingTop=-1;spacingLeft=3;spacingRight=3;rotatable=0;labelPosition=right;points=[];portConstraint=eastwest;strokeColor=inherit;" parent="2qe7vK6OA9ovOPbLx4hL-141" vertex="1">
          <mxGeometry y="30" width="160" height="30" as="geometry" />
        </mxCell>
        <mxCell id="2qe7vK6OA9ovOPbLx4hL-143" value="«interface»&lt;br&gt;&lt;b&gt;Controller&lt;/b&gt;" style="html=1;whiteSpace=wrap;" parent="1" vertex="1">
          <mxGeometry x="1198" y="1521" width="110" height="50" as="geometry" />
        </mxCell>
        <mxCell id="2qe7vK6OA9ovOPbLx4hL-144" value="ConnectionSceneController" style="swimlane;fontStyle=1;align=center;verticalAlign=top;childLayout=stackLayout;horizontal=1;startSize=30;horizontalStack=0;resizeParent=1;resizeParentMax=0;resizeLast=0;collapsible=1;marginBottom=0;whiteSpace=wrap;html=1;" parent="1" vertex="1">
          <mxGeometry x="905" y="1591" width="160" height="60" as="geometry" />
        </mxCell>
        <mxCell id="2qe7vK6OA9ovOPbLx4hL-145" value="" style="line;strokeWidth=1;fillColor=none;align=left;verticalAlign=middle;spacingTop=-1;spacingLeft=3;spacingRight=3;rotatable=0;labelPosition=right;points=[];portConstraint=eastwest;strokeColor=inherit;" parent="2qe7vK6OA9ovOPbLx4hL-144" vertex="1">
          <mxGeometry y="30" width="160" height="30" as="geometry" />
        </mxCell>
        <mxCell id="2qe7vK6OA9ovOPbLx4hL-146" value="MenuSceneController" style="swimlane;fontStyle=1;align=center;verticalAlign=top;childLayout=stackLayout;horizontal=1;startSize=30;horizontalStack=0;resizeParent=1;resizeParentMax=0;resizeLast=0;collapsible=1;marginBottom=0;whiteSpace=wrap;html=1;" parent="1" vertex="1">
          <mxGeometry x="960" y="1672" width="160" height="60" as="geometry" />
        </mxCell>
        <mxCell id="2qe7vK6OA9ovOPbLx4hL-147" value="" style="line;strokeWidth=1;fillColor=none;align=left;verticalAlign=middle;spacingTop=-1;spacingLeft=3;spacingRight=3;rotatable=0;labelPosition=right;points=[];portConstraint=eastwest;strokeColor=inherit;" parent="2qe7vK6OA9ovOPbLx4hL-146" vertex="1">
          <mxGeometry y="30" width="160" height="30" as="geometry" />
        </mxCell>
        <mxCell id="2qe7vK6OA9ovOPbLx4hL-148" value="ServerSceneController" style="swimlane;fontStyle=1;align=center;verticalAlign=top;childLayout=stackLayout;horizontal=1;startSize=30;horizontalStack=0;resizeParent=1;resizeParentMax=0;resizeLast=0;collapsible=1;marginBottom=0;whiteSpace=wrap;html=1;" parent="1" vertex="1">
          <mxGeometry x="1137" y="1681" width="160" height="60" as="geometry" />
        </mxCell>
        <mxCell id="2qe7vK6OA9ovOPbLx4hL-149" value="" style="line;strokeWidth=1;fillColor=none;align=left;verticalAlign=middle;spacingTop=-1;spacingLeft=3;spacingRight=3;rotatable=0;labelPosition=right;points=[];portConstraint=eastwest;strokeColor=inherit;" parent="2qe7vK6OA9ovOPbLx4hL-148" vertex="1">
          <mxGeometry y="30" width="160" height="30" as="geometry" />
        </mxCell>
        <mxCell id="2qe7vK6OA9ovOPbLx4hL-150" value="InLobbySceneController" style="swimlane;fontStyle=1;align=center;verticalAlign=top;childLayout=stackLayout;horizontal=1;startSize=30;horizontalStack=0;resizeParent=1;resizeParentMax=0;resizeLast=0;collapsible=1;marginBottom=0;whiteSpace=wrap;html=1;" parent="1" vertex="1">
          <mxGeometry x="1312.5" y="1678" width="160" height="60" as="geometry" />
        </mxCell>
        <mxCell id="2qe7vK6OA9ovOPbLx4hL-151" value="" style="line;strokeWidth=1;fillColor=none;align=left;verticalAlign=middle;spacingTop=-1;spacingLeft=3;spacingRight=3;rotatable=0;labelPosition=right;points=[];portConstraint=eastwest;strokeColor=inherit;" parent="2qe7vK6OA9ovOPbLx4hL-150" vertex="1">
          <mxGeometry y="30" width="160" height="30" as="geometry" />
        </mxCell>
        <mxCell id="2qe7vK6OA9ovOPbLx4hL-152" value="GameSceneController" style="swimlane;fontStyle=1;align=center;verticalAlign=top;childLayout=stackLayout;horizontal=1;startSize=30;horizontalStack=0;resizeParent=1;resizeParentMax=0;resizeLast=0;collapsible=1;marginBottom=0;whiteSpace=wrap;html=1;" parent="1" vertex="1">
          <mxGeometry x="1439" y="1606" width="160" height="60" as="geometry" />
        </mxCell>
        <mxCell id="2qe7vK6OA9ovOPbLx4hL-153" value="" style="line;strokeWidth=1;fillColor=none;align=left;verticalAlign=middle;spacingTop=-1;spacingLeft=3;spacingRight=3;rotatable=0;labelPosition=right;points=[];portConstraint=eastwest;strokeColor=inherit;" parent="2qe7vK6OA9ovOPbLx4hL-152" vertex="1">
          <mxGeometry y="30" width="160" height="30" as="geometry" />
        </mxCell>
        <mxCell id="wJdnqVq0FRM58SnaqcS5-37" style="edgeStyle=orthogonalEdgeStyle;rounded=0;orthogonalLoop=1;jettySize=auto;html=1;exitX=0.25;exitY=1;exitDx=0;exitDy=0;entryX=1;entryY=0.25;entryDx=0;entryDy=0;endArrow=open;endFill=0;" parent="1" source="2qe7vK6OA9ovOPbLx4hL-53" target="2qe7vK6OA9ovOPbLx4hL-41" edge="1">
          <mxGeometry relative="1" as="geometry">
            <mxPoint x="450" y="300" as="targetPoint" />
            <Array as="points">
              <mxPoint x="703" y="220" />
              <mxPoint x="703" y="320" />
              <mxPoint x="540" y="320" />
              <mxPoint x="540" y="288" />
              <mxPoint x="490" y="288" />
            </Array>
          </mxGeometry>
        </mxCell>
        <mxCell id="wJdnqVq0FRM58SnaqcS5-40" style="edgeStyle=orthogonalEdgeStyle;rounded=0;orthogonalLoop=1;jettySize=auto;html=1;entryX=1;entryY=0.25;entryDx=0;entryDy=0;endArrow=open;endFill=0;" parent="1" target="2qe7vK6OA9ovOPbLx4hL-55" edge="1">
          <mxGeometry relative="1" as="geometry">
            <Array as="points">
              <mxPoint x="720" y="365" />
            </Array>
            <mxPoint x="720" y="198" as="sourcePoint" />
          </mxGeometry>
        </mxCell>
        <mxCell id="wJdnqVq0FRM58SnaqcS5-49" style="edgeStyle=orthogonalEdgeStyle;rounded=0;orthogonalLoop=1;jettySize=auto;html=1;exitX=0;exitY=0.25;exitDx=0;exitDy=0;entryX=0.75;entryY=0;entryDx=0;entryDy=0;endArrow=open;endFill=0;" parent="1" source="2qe7vK6OA9ovOPbLx4hL-53" target="2qe7vK6OA9ovOPbLx4hL-45" edge="1">
          <mxGeometry relative="1" as="geometry" />
        </mxCell>
        <mxCell id="wJdnqVq0FRM58SnaqcS5-59" style="edgeStyle=orthogonalEdgeStyle;rounded=0;orthogonalLoop=1;jettySize=auto;html=1;entryX=0.5;entryY=0;entryDx=0;entryDy=0;exitX=0.75;exitY=1;exitDx=0;exitDy=0;endArrow=open;endFill=0;" parent="1" source="2qe7vK6OA9ovOPbLx4hL-53" target="2qe7vK6OA9ovOPbLx4hL-39" edge="1">
          <mxGeometry relative="1" as="geometry">
            <mxPoint x="790" y="250" as="sourcePoint" />
            <Array as="points">
              <mxPoint x="762" y="275" />
              <mxPoint x="885" y="275" />
            </Array>
          </mxGeometry>
        </mxCell>
        <mxCell id="EsLmEgkiOm4dnzLNr7Mo-6" style="edgeStyle=orthogonalEdgeStyle;rounded=0;orthogonalLoop=1;jettySize=auto;html=1;exitX=0.5;exitY=1;exitDx=0;exitDy=0;entryX=1;entryY=0.25;entryDx=0;entryDy=0;endArrow=open;endFill=0;" parent="1" source="2qe7vK6OA9ovOPbLx4hL-53" target="2qe7vK6OA9ovOPbLx4hL-47" edge="1">
          <mxGeometry relative="1" as="geometry">
            <Array as="points">
              <mxPoint x="734" y="400" />
              <mxPoint x="470" y="400" />
              <mxPoint x="470" y="473" />
            </Array>
          </mxGeometry>
        </mxCell>
        <mxCell id="2qe7vK6OA9ovOPbLx4hL-53" value="Game" style="swimlane;fontStyle=1;align=center;verticalAlign=top;childLayout=stackLayout;horizontal=1;startSize=30;horizontalStack=0;resizeParent=1;resizeParentMax=0;resizeLast=0;collapsible=1;marginBottom=0;whiteSpace=wrap;html=1;" parent="1" vertex="1">
          <mxGeometry x="677" y="145" width="113" height="53" as="geometry" />
        </mxCell>
        <mxCell id="2qe7vK6OA9ovOPbLx4hL-54" value="" style="line;strokeWidth=1;fillColor=none;align=left;verticalAlign=middle;spacingTop=-1;spacingLeft=3;spacingRight=3;rotatable=0;labelPosition=right;points=[];portConstraint=eastwest;strokeColor=inherit;" parent="2qe7vK6OA9ovOPbLx4hL-53" vertex="1">
          <mxGeometry y="30" width="113" height="23" as="geometry" />
        </mxCell>
        <mxCell id="2qe7vK6OA9ovOPbLx4hL-70" value="«enumeration»&lt;br&gt;GamePhase" style="swimlane;fontStyle=0;childLayout=stackLayout;horizontal=1;startSize=30;horizontalStack=0;resizeParent=1;resizeParentMax=0;resizeLast=0;collapsible=1;marginBottom=0;whiteSpace=wrap;html=1;" parent="1" vertex="1">
          <mxGeometry x="840" y="220" width="140" height="40" as="geometry" />
        </mxCell>
        <mxCell id="2qe7vK6OA9ovOPbLx4hL-68" value="«enumeration»&lt;br&gt;TurnPhase" style="swimlane;fontStyle=0;childLayout=stackLayout;horizontal=1;startSize=30;horizontalStack=0;resizeParent=1;resizeParentMax=0;resizeLast=0;collapsible=1;marginBottom=0;whiteSpace=wrap;html=1;" parent="1" vertex="1">
          <mxGeometry x="840" y="170" width="140" height="40" as="geometry" />
        </mxCell>
        <mxCell id="wJdnqVq0FRM58SnaqcS5-53" value="" style="endArrow=open;html=1;rounded=0;exitX=0;exitY=0.5;exitDx=0;exitDy=0;entryX=1;entryY=0.25;entryDx=0;entryDy=0;endFill=0;" parent="1" source="2qe7vK6OA9ovOPbLx4hL-41" target="2qe7vK6OA9ovOPbLx4hL-49" edge="1">
          <mxGeometry width="50" height="50" relative="1" as="geometry">
            <mxPoint x="500" y="440" as="sourcePoint" />
            <mxPoint x="550" y="390" as="targetPoint" />
          </mxGeometry>
        </mxCell>
        <mxCell id="wJdnqVq0FRM58SnaqcS5-57" value="" style="endArrow=open;html=1;rounded=0;exitX=0;exitY=0.25;exitDx=0;exitDy=0;entryX=1;entryY=0.25;entryDx=0;entryDy=0;endFill=0;" parent="1" source="2qe7vK6OA9ovOPbLx4hL-55" target="2qe7vK6OA9ovOPbLx4hL-72" edge="1">
          <mxGeometry width="50" height="50" relative="1" as="geometry">
            <mxPoint x="500" y="440" as="sourcePoint" />
            <mxPoint x="550" y="390" as="targetPoint" />
          </mxGeometry>
        </mxCell>
        <mxCell id="wJdnqVq0FRM58SnaqcS5-60" value="" style="endArrow=open;html=1;rounded=0;entryX=0;entryY=0.5;entryDx=0;entryDy=0;exitX=1;exitY=0.5;exitDx=0;exitDy=0;endFill=0;" parent="1" source="2qe7vK6OA9ovOPbLx4hL-53" target="2qe7vK6OA9ovOPbLx4hL-70" edge="1">
          <mxGeometry width="50" height="50" relative="1" as="geometry">
            <mxPoint x="780" y="180" as="sourcePoint" />
            <mxPoint x="550" y="390" as="targetPoint" />
          </mxGeometry>
        </mxCell>
        <mxCell id="EsLmEgkiOm4dnzLNr7Mo-13" value="" style="endArrow=block;endSize=16;endFill=0;html=1;rounded=0;entryX=0;entryY=0.25;entryDx=0;entryDy=0;exitX=1;exitY=0.25;exitDx=0;exitDy=0;fillColor=#f8cecc;strokeColor=#b85450;strokeWidth=1.5;" parent="1" source="2qe7vK6OA9ovOPbLx4hL-53" target="2qe7vK6OA9ovOPbLx4hL-60" edge="1">
          <mxGeometry width="160" relative="1" as="geometry">
            <mxPoint x="1080" y="430" as="sourcePoint" />
            <mxPoint x="1280" y="620" as="targetPoint" />
            <Array as="points">
              <mxPoint x="935" y="160" />
              <mxPoint x="1080" y="160" />
              <mxPoint x="1080" y="600" />
            </Array>
          </mxGeometry>
        </mxCell>
        <mxCell id="EsLmEgkiOm4dnzLNr7Mo-15" value="" style="endArrow=open;html=1;rounded=0;entryX=0;entryY=0.5;entryDx=0;entryDy=0;exitX=1;exitY=0.5;exitDx=0;exitDy=0;endFill=0;" parent="1" source="2qe7vK6OA9ovOPbLx4hL-53" target="2qe7vK6OA9ovOPbLx4hL-68" edge="1">
          <mxGeometry width="50" height="50" relative="1" as="geometry">
            <mxPoint x="795" y="180" as="sourcePoint" />
            <mxPoint x="845" y="245" as="targetPoint" />
          </mxGeometry>
        </mxCell>
        <mxCell id="EsLmEgkiOm4dnzLNr7Mo-38" value="" style="endArrow=block;endSize=16;endFill=0;html=1;rounded=0;entryX=0;entryY=0.5;entryDx=0;entryDy=0;exitX=0.5;exitY=0;exitDx=0;exitDy=0;" parent="1" source="2qe7vK6OA9ovOPbLx4hL-110" target="2qe7vK6OA9ovOPbLx4hL-100" edge="1">
          <mxGeometry width="160" relative="1" as="geometry">
            <mxPoint x="1270" y="850" as="sourcePoint" />
            <mxPoint x="1430" y="850" as="targetPoint" />
            <Array as="points" />
          </mxGeometry>
        </mxCell>
        <mxCell id="EsLmEgkiOm4dnzLNr7Mo-39" value="" style="endArrow=block;endSize=16;endFill=0;html=1;rounded=0;entryX=0;entryY=0.5;entryDx=0;entryDy=0;exitX=0.847;exitY=0.013;exitDx=0;exitDy=0;exitPerimeter=0;" parent="1" source="2qe7vK6OA9ovOPbLx4hL-104" edge="1">
          <mxGeometry width="160" relative="1" as="geometry">
            <mxPoint x="1355" y="877" as="sourcePoint" />
            <mxPoint x="1460" y="810" as="targetPoint" />
            <Array as="points" />
          </mxGeometry>
        </mxCell>
        <mxCell id="EsLmEgkiOm4dnzLNr7Mo-40" value="" style="endArrow=block;endSize=16;endFill=0;html=1;rounded=0;entryX=0.5;entryY=1;entryDx=0;entryDy=0;exitX=0.454;exitY=0.027;exitDx=0;exitDy=0;exitPerimeter=0;" parent="1" source="2qe7vK6OA9ovOPbLx4hL-106" target="2qe7vK6OA9ovOPbLx4hL-100" edge="1">
          <mxGeometry width="160" relative="1" as="geometry">
            <mxPoint x="1445" y="923.5" as="sourcePoint" />
            <mxPoint x="1550" y="856.5" as="targetPoint" />
            <Array as="points" />
          </mxGeometry>
        </mxCell>
        <mxCell id="EsLmEgkiOm4dnzLNr7Mo-41" value="" style="endArrow=block;endSize=16;endFill=0;html=1;rounded=0;entryX=0.75;entryY=1;entryDx=0;entryDy=0;exitX=0.25;exitY=0;exitDx=0;exitDy=0;" parent="1" source="2qe7vK6OA9ovOPbLx4hL-108" target="2qe7vK6OA9ovOPbLx4hL-100" edge="1">
          <mxGeometry width="160" relative="1" as="geometry">
            <mxPoint x="1535" y="966.5" as="sourcePoint" />
            <mxPoint x="1537" y="817.5" as="targetPoint" />
            <Array as="points" />
          </mxGeometry>
        </mxCell>
        <mxCell id="EsLmEgkiOm4dnzLNr7Mo-42" value="" style="endArrow=block;endSize=16;endFill=0;html=1;rounded=0;entryX=1;entryY=0.5;entryDx=0;entryDy=0;exitX=0.5;exitY=0;exitDx=0;exitDy=0;" parent="1" source="2qe7vK6OA9ovOPbLx4hL-113" target="2qe7vK6OA9ovOPbLx4hL-100" edge="1">
          <mxGeometry width="160" relative="1" as="geometry">
            <mxPoint x="1665" y="916.5" as="sourcePoint" />
            <mxPoint x="1667" y="767.5" as="targetPoint" />
            <Array as="points" />
          </mxGeometry>
        </mxCell>
        <mxCell id="EsLmEgkiOm4dnzLNr7Mo-44" value="" style="endArrow=block;dashed=1;endFill=0;endSize=12;html=1;rounded=0;exitX=0.25;exitY=1;exitDx=0;exitDy=0;entryX=0.5;entryY=0;entryDx=0;entryDy=0;" parent="1" source="2qe7vK6OA9ovOPbLx4hL-106" target="2qe7vK6OA9ovOPbLx4hL-102" edge="1">
          <mxGeometry width="160" relative="1" as="geometry">
            <mxPoint x="1365" y="1005" as="sourcePoint" />
            <mxPoint x="1525" y="1005" as="targetPoint" />
          </mxGeometry>
        </mxCell>
        <mxCell id="EsLmEgkiOm4dnzLNr7Mo-45" value="" style="endArrow=block;dashed=1;endFill=0;endSize=12;html=1;rounded=0;entryX=0.25;entryY=0;entryDx=0;entryDy=0;exitX=0.5;exitY=1;exitDx=0;exitDy=0;" parent="1" source="2qe7vK6OA9ovOPbLx4hL-104" target="2qe7vK6OA9ovOPbLx4hL-102" edge="1">
          <mxGeometry width="160" relative="1" as="geometry">
            <mxPoint x="1358" y="965" as="sourcePoint" />
            <mxPoint x="1272.5" y="1050" as="targetPoint" />
          </mxGeometry>
        </mxCell>
        <mxCell id="EsLmEgkiOm4dnzLNr7Mo-47" value="" style="endArrow=block;dashed=1;endFill=0;endSize=12;html=1;rounded=0;exitX=0;exitY=1;exitDx=0;exitDy=0;entryX=0.75;entryY=0;entryDx=0;entryDy=0;" parent="1" source="2qe7vK6OA9ovOPbLx4hL-108" target="2qe7vK6OA9ovOPbLx4hL-102" edge="1">
          <mxGeometry width="160" relative="1" as="geometry">
            <mxPoint x="1535" y="965" as="sourcePoint" />
            <mxPoint x="1450" y="1050" as="targetPoint" />
          </mxGeometry>
        </mxCell>
        <mxCell id="EsLmEgkiOm4dnzLNr7Mo-48" value="" style="endArrow=block;dashed=1;endFill=0;endSize=12;html=1;rounded=0;exitX=0.5;exitY=1;exitDx=0;exitDy=0;entryX=0.25;entryY=0;entryDx=0;entryDy=0;" parent="1" source="2qe7vK6OA9ovOPbLx4hL-106" target="2qe7vK6OA9ovOPbLx4hL-103" edge="1">
          <mxGeometry width="160" relative="1" as="geometry">
            <mxPoint x="1535" y="960" as="sourcePoint" />
            <mxPoint x="1485" y="1050" as="targetPoint" />
          </mxGeometry>
        </mxCell>
        <mxCell id="EsLmEgkiOm4dnzLNr7Mo-49" value="" style="endArrow=block;dashed=1;endFill=0;endSize=12;html=1;rounded=0;exitX=0.5;exitY=1;exitDx=0;exitDy=0;entryX=0.5;entryY=0;entryDx=0;entryDy=0;" parent="1" source="2qe7vK6OA9ovOPbLx4hL-108" target="2qe7vK6OA9ovOPbLx4hL-103" edge="1">
          <mxGeometry width="160" relative="1" as="geometry">
            <mxPoint x="1642" y="970" as="sourcePoint" />
            <mxPoint x="1715" y="1060" as="targetPoint" />
          </mxGeometry>
        </mxCell>
        <mxCell id="EsLmEgkiOm4dnzLNr7Mo-52" value="" style="endArrow=block;dashed=1;endFill=0;endSize=12;html=1;rounded=0;entryX=0;entryY=0.5;entryDx=0;entryDy=0;exitX=1;exitY=0.25;exitDx=0;exitDy=0;" parent="1" source="2qe7vK6OA9ovOPbLx4hL-96" target="2qe7vK6OA9ovOPbLx4hL-81" edge="1">
          <mxGeometry width="160" relative="1" as="geometry">
            <mxPoint x="220" y="897.5" as="sourcePoint" />
            <mxPoint x="380" y="897.5" as="targetPoint" />
          </mxGeometry>
        </mxCell>
        <mxCell id="EsLmEgkiOm4dnzLNr7Mo-54" value="" style="endArrow=block;dashed=1;endFill=0;endSize=12;html=1;rounded=0;entryX=1;entryY=0.5;entryDx=0;entryDy=0;exitX=0;exitY=0.25;exitDx=0;exitDy=0;" parent="1" source="2qe7vK6OA9ovOPbLx4hL-89" target="2qe7vK6OA9ovOPbLx4hL-81" edge="1">
          <mxGeometry width="160" relative="1" as="geometry">
            <mxPoint x="290" y="912.5" as="sourcePoint" />
            <mxPoint x="400" y="912.5" as="targetPoint" />
          </mxGeometry>
        </mxCell>
        <mxCell id="EsLmEgkiOm4dnzLNr7Mo-55" value="" style="endArrow=block;dashed=1;endFill=0;endSize=12;html=1;rounded=0;entryX=0;entryY=0.5;entryDx=0;entryDy=0;exitX=1;exitY=0.5;exitDx=0;exitDy=0;" parent="1" source="2qe7vK6OA9ovOPbLx4hL-98" target="2qe7vK6OA9ovOPbLx4hL-82" edge="1">
          <mxGeometry width="160" relative="1" as="geometry">
            <mxPoint x="275" y="785" as="sourcePoint" />
            <mxPoint x="385" y="785" as="targetPoint" />
          </mxGeometry>
        </mxCell>
        <mxCell id="EsLmEgkiOm4dnzLNr7Mo-56" value="" style="endArrow=block;dashed=1;endFill=0;endSize=12;html=1;rounded=0;exitX=0;exitY=0.25;exitDx=0;exitDy=0;entryX=1;entryY=0.25;entryDx=0;entryDy=0;" parent="1" source="2qe7vK6OA9ovOPbLx4hL-85" target="2qe7vK6OA9ovOPbLx4hL-82" edge="1">
          <mxGeometry width="160" relative="1" as="geometry">
            <mxPoint x="560" y="784.38" as="sourcePoint" />
            <mxPoint x="495" y="788" as="targetPoint" />
          </mxGeometry>
        </mxCell>
        <mxCell id="EsLmEgkiOm4dnzLNr7Mo-57" value="" style="endArrow=block;endSize=16;endFill=0;html=1;rounded=0;entryX=0.25;entryY=1;entryDx=0;entryDy=0;exitX=1;exitY=0.25;exitDx=0;exitDy=0;" parent="1" source="2qe7vK6OA9ovOPbLx4hL-130" target="2qe7vK6OA9ovOPbLx4hL-118" edge="1">
          <mxGeometry width="160" relative="1" as="geometry">
            <mxPoint x="710" y="1075" as="sourcePoint" />
            <mxPoint x="870" y="1075" as="targetPoint" />
            <Array as="points">
              <mxPoint x="770" y="1440" />
            </Array>
          </mxGeometry>
        </mxCell>
        <mxCell id="EsLmEgkiOm4dnzLNr7Mo-59" value="" style="endArrow=block;endSize=16;endFill=0;html=1;rounded=0;entryX=0.5;entryY=1;entryDx=0;entryDy=0;exitX=0;exitY=0.25;exitDx=0;exitDy=0;" parent="1" source="2qe7vK6OA9ovOPbLx4hL-141" target="2qe7vK6OA9ovOPbLx4hL-118" edge="1">
          <mxGeometry width="160" relative="1" as="geometry">
            <mxPoint x="735" y="1491" as="sourcePoint" />
            <mxPoint x="975" y="1315" as="targetPoint" />
            <Array as="points">
              <mxPoint x="810" y="1436" />
            </Array>
          </mxGeometry>
        </mxCell>
        <mxCell id="EsLmEgkiOm4dnzLNr7Mo-63" value="" style="endArrow=block;dashed=1;endFill=0;endSize=12;html=1;rounded=0;entryX=1;entryY=0.5;entryDx=0;entryDy=0;exitX=0;exitY=0.5;exitDx=0;exitDy=0;" parent="1" source="2qe7vK6OA9ovOPbLx4hL-118" target="2qe7vK6OA9ovOPbLx4hL-117" edge="1">
          <mxGeometry width="160" relative="1" as="geometry">
            <mxPoint x="660" y="1055" as="sourcePoint" />
            <mxPoint x="820" y="1055" as="targetPoint" />
          </mxGeometry>
        </mxCell>
        <mxCell id="EsLmEgkiOm4dnzLNr7Mo-66" value="" style="endArrow=block;endSize=16;endFill=0;html=1;rounded=0;entryX=0;entryY=0.75;entryDx=0;entryDy=0;exitX=1;exitY=0.25;exitDx=0;exitDy=0;fillColor=#f8cecc;strokeColor=#b85450;strokeWidth=1.5;" parent="1" source="2qe7vK6OA9ovOPbLx4hL-118" target="2qe7vK6OA9ovOPbLx4hL-60" edge="1">
          <mxGeometry width="160" relative="1" as="geometry">
            <mxPoint x="949.5" y="680" as="sourcePoint" />
            <mxPoint x="1592.5" y="1120" as="targetPoint" />
            <Array as="points">
              <mxPoint x="1080" y="1214" />
              <mxPoint x="1080" y="1025" />
              <mxPoint x="1080" y="630" />
            </Array>
          </mxGeometry>
        </mxCell>
        <mxCell id="EsLmEgkiOm4dnzLNr7Mo-85" value="" style="endArrow=none;endFill=0;endSize=12;html=1;rounded=0;labelBackgroundColor=default;strokeColor=default;fontFamily=Helvetica;fontSize=11;fontColor=default;shape=connector;exitX=0.5;exitY=0;exitDx=0;exitDy=0;entryX=0.004;entryY=0.899;entryDx=0;entryDy=0;entryPerimeter=0;dashed=1;dashPattern=12 12;" parent="1" source="2qe7vK6OA9ovOPbLx4hL-117" target="2qe7vK6OA9ovOPbLx4hL-8" edge="1">
          <mxGeometry width="160" relative="1" as="geometry">
            <mxPoint x="1065" y="915" as="sourcePoint" />
            <mxPoint x="1225" y="915" as="targetPoint" />
            <Array as="points">
              <mxPoint x="580" y="1056" />
            </Array>
          </mxGeometry>
        </mxCell>
        <mxCell id="EsLmEgkiOm4dnzLNr7Mo-88" value="" style="endArrow=open;endFill=1;endSize=12;html=1;rounded=0;exitX=0;exitY=0.25;exitDx=0;exitDy=0;entryX=1;entryY=0.5;entryDx=0;entryDy=0;" parent="1" source="2qe7vK6OA9ovOPbLx4hL-130" target="2qe7vK6OA9ovOPbLx4hL-122" edge="1">
          <mxGeometry width="160" relative="1" as="geometry">
            <mxPoint x="334" y="1904" as="sourcePoint" />
            <mxPoint x="494" y="1904" as="targetPoint" />
          </mxGeometry>
        </mxCell>
        <mxCell id="EsLmEgkiOm4dnzLNr7Mo-89" value="" style="endArrow=open;endFill=1;endSize=12;html=1;rounded=0;exitX=0.005;exitY=0.379;exitDx=0;exitDy=0;entryX=1;entryY=0.25;entryDx=0;entryDy=0;exitPerimeter=0;" parent="1" source="2qe7vK6OA9ovOPbLx4hL-130" target="2qe7vK6OA9ovOPbLx4hL-128" edge="1">
          <mxGeometry width="160" relative="1" as="geometry">
            <mxPoint x="405" y="1468" as="sourcePoint" />
            <mxPoint x="304" y="1452" as="targetPoint" />
          </mxGeometry>
        </mxCell>
        <mxCell id="EsLmEgkiOm4dnzLNr7Mo-91" value="" style="endArrow=open;endFill=1;endSize=12;html=1;rounded=0;exitX=0;exitY=0.5;exitDx=0;exitDy=0;entryX=1;entryY=0.5;entryDx=0;entryDy=0;fontStyle=1" parent="1" source="2qe7vK6OA9ovOPbLx4hL-130" target="2qe7vK6OA9ovOPbLx4hL-126" edge="1">
          <mxGeometry width="160" relative="1" as="geometry">
            <mxPoint x="429" y="1522" as="sourcePoint" />
            <mxPoint x="328" y="1561" as="targetPoint" />
          </mxGeometry>
        </mxCell>
        <mxCell id="EsLmEgkiOm4dnzLNr7Mo-92" value="" style="endArrow=open;endFill=1;endSize=12;html=1;rounded=0;exitX=0;exitY=0.75;exitDx=0;exitDy=0;entryX=1;entryY=0.25;entryDx=0;entryDy=0;" parent="1" source="2qe7vK6OA9ovOPbLx4hL-130" target="2qe7vK6OA9ovOPbLx4hL-124" edge="1">
          <mxGeometry width="160" relative="1" as="geometry">
            <mxPoint x="448.5" y="1593" as="sourcePoint" />
            <mxPoint x="347.5" y="1632" as="targetPoint" />
          </mxGeometry>
        </mxCell>
        <mxCell id="EsLmEgkiOm4dnzLNr7Mo-93" value="" style="endArrow=block;dashed=1;endFill=0;endSize=12;html=1;rounded=0;entryX=0;entryY=0.25;entryDx=0;entryDy=0;exitX=1;exitY=0.25;exitDx=0;exitDy=0;" parent="1" source="2qe7vK6OA9ovOPbLx4hL-144" target="2qe7vK6OA9ovOPbLx4hL-143" edge="1">
          <mxGeometry width="160" relative="1" as="geometry">
            <mxPoint x="1210" y="1110" as="sourcePoint" />
            <mxPoint x="1247" y="1170" as="targetPoint" />
          </mxGeometry>
        </mxCell>
        <mxCell id="EsLmEgkiOm4dnzLNr7Mo-94" value="" style="endArrow=block;dashed=1;endFill=0;endSize=12;html=1;rounded=0;entryX=0;entryY=0.75;entryDx=0;entryDy=0;exitX=0.5;exitY=0;exitDx=0;exitDy=0;" parent="1" source="2qe7vK6OA9ovOPbLx4hL-146" target="2qe7vK6OA9ovOPbLx4hL-143" edge="1">
          <mxGeometry width="160" relative="1" as="geometry">
            <mxPoint x="1087" y="1675" as="sourcePoint" />
            <mxPoint x="1220" y="1615" as="targetPoint" />
          </mxGeometry>
        </mxCell>
        <mxCell id="EsLmEgkiOm4dnzLNr7Mo-95" value="" style="endArrow=block;dashed=1;endFill=0;endSize=12;html=1;rounded=0;exitX=0.5;exitY=0;exitDx=0;exitDy=0;entryX=0.25;entryY=1;entryDx=0;entryDy=0;" parent="1" source="2qe7vK6OA9ovOPbLx4hL-148" target="2qe7vK6OA9ovOPbLx4hL-143" edge="1">
          <mxGeometry width="160" relative="1" as="geometry">
            <mxPoint x="1117" y="1691" as="sourcePoint" />
            <mxPoint x="1270" y="1581" as="targetPoint" />
          </mxGeometry>
        </mxCell>
        <mxCell id="EsLmEgkiOm4dnzLNr7Mo-98" value="" style="endArrow=block;dashed=1;endFill=0;endSize=12;html=1;rounded=0;exitX=0.25;exitY=0;exitDx=0;exitDy=0;entryX=0.75;entryY=1;entryDx=0;entryDy=0;" parent="1" source="2qe7vK6OA9ovOPbLx4hL-150" target="2qe7vK6OA9ovOPbLx4hL-143" edge="1">
          <mxGeometry width="160" relative="1" as="geometry">
            <mxPoint x="1283" y="1683" as="sourcePoint" />
            <mxPoint x="1292" y="1573" as="targetPoint" />
          </mxGeometry>
        </mxCell>
        <mxCell id="EsLmEgkiOm4dnzLNr7Mo-100" value="" style="endArrow=block;dashed=1;endFill=0;endSize=12;html=1;rounded=0;exitX=0;exitY=0.25;exitDx=0;exitDy=0;entryX=1;entryY=0.75;entryDx=0;entryDy=0;" parent="1" source="2qe7vK6OA9ovOPbLx4hL-152" target="2qe7vK6OA9ovOPbLx4hL-143" edge="1">
          <mxGeometry width="160" relative="1" as="geometry">
            <mxPoint x="1380" y="1672" as="sourcePoint" />
            <mxPoint x="1389" y="1562" as="targetPoint" />
          </mxGeometry>
        </mxCell>
      </root>
    </mxGraphModel>
  </diagram>
</mxfile>
